<?xml version="1.0" encoding="UTF-8" standalone="no"?>
<svg
   xmlns:dc="http://purl.org/dc/elements/1.1/"
   xmlns:cc="http://creativecommons.org/ns#"
   xmlns:rdf="http://www.w3.org/1999/02/22-rdf-syntax-ns#"
   xmlns:svg="http://www.w3.org/2000/svg"
   xmlns="http://www.w3.org/2000/svg"
   xmlns:sodipodi="http://sodipodi.sourceforge.net/DTD/sodipodi-0.dtd"
   xmlns:inkscape="http://www.inkscape.org/namespaces/inkscape"
   width="16"
   height="16"
   viewBox="0 -1.3 16 16"
   preserveAspectRatio="xMinYMid meet"
   overflow="visible"
   id="svg2"
   version="1.1"
   inkscape:version="0.91 r13725"
   sodipodi:docname="icon.svg">
  <metadata
     id="metadata10">
    <rdf:RDF>
      <cc:Work
         rdf:about="">
        <dc:format>image/svg+xml</dc:format>
        <dc:type
           rdf:resource="http://purl.org/dc/dcmitype/StillImage" />
        <dc:title></dc:title>
      </cc:Work>
    </rdf:RDF>
  </metadata>
  <defs
     id="defs8" />
  <sodipodi:namedview
     pagecolor="#ffffff"
     bordercolor="#666666"
     borderopacity="1"
     objecttolerance="10"
     gridtolerance="10"
     guidetolerance="10"
     inkscape:pageopacity="0"
     inkscape:pageshadow="2"
     inkscape:window-width="1855"
     inkscape:window-height="963"
     id="namedview6"
     showgrid="false"
     inkscape:zoom="14.75"
     inkscape:cx="8"
     inkscape:cy="8"
     inkscape:window-x="65"
     inkscape:window-y="24"
     inkscape:window-maximized="0"
     inkscape:current-layer="svg2" />
  <path
     d="M8 2.5c-.5 0-1-.5-1-1V1c0-.5-.5-1-1-1H1C.5 0 0 .5 0 1v11.5c0 .5.5 1 1 1h14c.5 0 1-.5 1-1v-9c0-.5-.5-1-1-1H8z"
     fill="#999"
     id="path4"
     style="fill:#1d2d44;fill-opacity:1" />
  <style
     id="style4300"
     type="text/css">
	.st0{fill:#1D2D44;}
	.st1{fill:#FFFFFF;stroke:#1D2D44;stroke-width:0.1806;}
</style>
  <g
     id="g4350"
     transform="matrix(0.64406779,0,0,0.63983051,2.3728805,2.7)">
    <path
       d="m 15.5,16 -15,0 C 0.2,16 0,15.8 0,15.5 L 0,0.5 C 0,0.2 0.2,0 0.5,0 L 15.4,0 C 15.8,0 16,0.2 16,0.5 l 0,14.9 c 0,0.4 -0.2,0.6 -0.5,0.6 z"
       class="st0"
       id="background"
       inkscape:connector-curvature="0"
       style="fill:#1d2d44" />
    <g
       id="cloud">
      <circle
         r="0.89999998"
         cy="6.4000001"
         cx="5.4000001"
         class="st1"
         id="circle265"
         style="fill:#ffffff;stroke:#1d2d44;stroke-width:0.1806" />
      <circle
         r="1.7"
         cy="9.6000004"
         cx="3.7"
         class="st1"
         id="circle272"
         style="fill:#ffffff;stroke:#1d2d44;stroke-width:0.1806" />
      <circle
         r="1.8"
         cy="8.3999996"
         cx="5.5999999"
         class="st1"
         id="circle279"
         style="fill:#ffffff;stroke:#1d2d44;stroke-width:0.1806" />
      <circle
         r="1.7"
         cy="7.6999998"
         cx="9.3000002"
         class="st1"
         id="circle286"
         style="fill:#ffffff;stroke:#1d2d44;stroke-width:0.1806" />
      <circle
         r="1.7"
         cy="6.4000001"
         cx="7.4000001"
         class="st1"
         id="circle293"
         style="fill:#ffffff;stroke:#1d2d44;stroke-width:0.1806" />
      <circle
         r="1"
         cy="10.2"
         cx="13"
         class="st1"
         id="circle300"
         style="fill:#ffffff;stroke:#1d2d44;stroke-width:0.1806" />
      <circle
         r="1.8"
         cy="9.5"
         cx="11"
         class="st1"
         id="circle307"
         style="fill:#ffffff;stroke:#1d2d44;stroke-width:0.1806" />
      <circle
         r="1"
         cy="10.3"
         cx="5.5"
         class="st1"
         id="circle314"
         style="fill:#ffffff;stroke:#1d2d44;stroke-width:0.1806" />
      <path
         d="m 10.3,8.9 c 0,1.3 -1,2.3 -2.3,2.3 -1.3,0 -2.3,-1 -2.3,-2.3 0,-1.3 1,-2.3 2.3,-2.3 1.3,0 2.3,1.1 2.3,2.3 z"
         class="st1"
         id="path321"
         inkscape:connector-curvature="0"
         style="fill:#ffffff;stroke:#1d2d44;stroke-width:0.1806" />
    </g>
    <g
       id="g4313" />
    <g
       id="g4315" />
    <g
       id="g4317" />
    <g
       id="g4319" />
    <g
       id="g4321" />
    <g
       id="g4323" />
    <g
       id="g4325" />
    <g
       id="g4327" />
    <g
       id="g4329" />
    <g
       id="g4331" />
    <g
       id="g4333" />
    <g
       id="g4335" />
    <g
       id="g4337" />
    <g
       id="g4339" />
    <g
       id="g4341" />
  </g>
</svg>
