<?xml version="1.0" encoding="UTF-8"?>
<svg width="24px" height="24px" enable-background="new 0 0 74.4 74.4" preserveAspectRatio="xMinYMid meet" version="1.1" viewBox="0 0 74.4 74.4" xml:space="preserve" xmlns="http://www.w3.org/2000/svg" xmlns:cc="http://creativecommons.org/ns#" xmlns:dc="http://purl.org/dc/elements/1.1/" xmlns:rdf="http://www.w3.org/1999/02/22-rdf-syntax-ns#"><metadata><rdf:RDF><cc:Work rdf:about=""><dc:format>image/svg+xml</dc:format><dc:type rdf:resource="http://purl.org/dc/dcmitype/StillImage"/><dc:title/></cc:Work></rdf:RDF></metadata>
<path d="m0.2 16.877c0-2.2 1.4-3.9097 3.2-3.9h33.1l7.4-6.8766c0.6-0.7 1.5-1.1 2.3-1.1h24.9c1.8 0 3.3 1.8 3.3 4.1v55.9c0 2.2-1.5 3.9-3.3 4.1h-67.7c-1.5 0-2.9-1.3-3.2-3.1 0-44.1-0.1-22.823-0.1-43.923zm5.2 1.6v45.323l63.9-0.2v-53.4l-22.3 0.3-7.7 7.2766c-0.4 0.5-1 0.79723-1.5 0.8h-32.4z"/>
<g transform="matrix(1.0148 0 0 1.0148 -2.0919 -3.5547)"><path d="m49.517 31.953-21.843 10.669" fill="none" stroke="#000" stroke-width="4.65"/><circle cx="49.443" cy="32.364" r="6.2965" fill-rule="evenodd"/><path d="m49.424 53.675-21.626-9.8922" fill="none" stroke="#000" stroke-width="4.65"/><circle cx="49.443" cy="54.064" r="6.2965" fill-rule="evenodd"/><circle cx="27.743" cy="43.214" r="6.2965" fill-rule="evenodd"/></g></svg>
